<?xml version="1.0" encoding="utf-8"?>
<!-- Generator: Adobe Illustrator 21.0.0, SVG Export Plug-In . SVG Version: 6.00 Build 0)  -->
<svg version="1.1" id="Capa_1" xmlns="http://www.w3.org/2000/svg" xmlns:xlink="http://www.w3.org/1999/xlink" x="0px" y="0px"
	 viewBox="0 0 970.2 806.8" style="enable-background:new 0 0 970.2 806.8;" xml:space="preserve">
<style type="text/css">
	.st0{fill:#F59C00;stroke:#E74011;stroke-width:4.0256;stroke-linecap:round;stroke-linejoin:round;}
	.st1{fill:#B61F29;stroke:#600F1E;stroke-width:4.0256;stroke-linecap:round;stroke-linejoin:round;}
	.st2{fill:#444F50;stroke:#2B2B2B;stroke-width:4.0256;stroke-linecap:round;stroke-linejoin:round;}
	.st3{fill:#600F1E;}
	.st4{fill:#E74011;}
	.st5{fill:#2B2B2B;}
</style>
<path id="Degjin" class="st0" d="M481.2,94.1l-14.1,14.3l-20.8-21l-3.9,0.6l3.9,24.8l-6,7.5l-7.5-1.7l-8.1-15.6l5.8-14.8l-10.8-6.7
	l-0.2-0.6l7.9-25.6l-20.6-2.5l-1.7-7.1l-0.8-0.8l-23-5.9l6.2-14.8l-8.7-13.9l-18.3,14.3l-1.7-1.3l-11.4-1.7L336.2,31l-2.5-0.2
	l-7.1,8.9l4,12.1l-17.9,6.9l-4-6.2l-15.4-2.1l-1.9-6.7L276,42l-3.1,9.6l-7.1,2.3l-1.2,13.9l-0.4,0.4l-7.7-1l-8.5-7.7l-9.2-0.2
	l-3.9-4.2l-13.5,0.2l-22.2-4.1l-8.5,10.2l22.2,8.7l3.3,11.7l7.5,2.3l7.1,7.5l3.9,1.3l3.5,18.5l12.9,2.3l4.6,7.1l10.8,0.2l4,9.6
	l-5.8,11.2l-11.2-0.6l-1.2-1l-13.3,6.5l-6.7-1.3l-5.6,19.5l-9.6-2.9l-6.9-10.8l-11.6,4.8l-1,7.3l-7.9,5.8l-14.6-14.3l2.1-3.5
	l1.5-18.2l4.8-7.8l3.7-18.1l-14.6-7.3l-1,0.6l-11.8,12.8l-5.4,0.6l-7.3-2.4l-9.4,4.8l-6.7-0.6l-1.7,0.8l-14.1-11.4l-10.4,4.2
	l-0.2,0.6l15.8,16.6h0.6l3.9,10.4l5,3.5l-2.3,19.1l-2.1,0.2l-10.6,9.2l0.8,12.9l7.7,3.1l-0.8,17.9l20.8-3.9l1.2,8.3l1,2.5l1,1.3
	l13.9,1.2l2.5,3.7l4.8,3.5l10.2-3.7l10,10.6l7.3-0.2l2.9,3.5l-4.8,15.4l13.5,5.4l2.7,6l-1.5,2.7l-18.3-0.8l-0.6,9.8l9.6,5.2l1.9,8.5
	l-8.9,7.3l7.5,15.8l8.1,3.7l0.4,2.3l10.8,8.3l-1.3,14.3l7.3,3.5l3.1,9.6l9.6,1.7l7.5,11.9l-4.8,12.3l0.2,0.8l11,8.5l1,9.8l-8.5,8.5
	l-0.2,1l1.9,9.8l8.5,6.9l5.4,0.8l-0.4,0.8l23.7,10l0.8-0.8l6.2,2.7l16.4-1l1.3-2.9l-3.3-19.5l18.3-1.2l0.4,1.9l13.1,2.9l6.9-1.7
	l0.8-0.8l11.2,2.5l5.6,12.3l-5.2,4.8l-3.9,16l-9.8-0.4l-12.3,17.1l-12.3-5.2l-8.5,7.5l2.5,19.1l-4,1.9l-4.6,12.9l10.4,12.3
	l-7.9,11.9l0.8,3.7l7.9,8.9l17.3-6l3.3,1.3l7.5-1.9l10.8-14.4l1.7-0.8l6.9,2.5l3.1-0.4l10.2-22.7l2.7-0.6l3.5,1.9l16.8-6l5.6,1.5
	l2.7-0.8l9.4,6.7l12.3-8.5l7.9,0.2l1.2,16.9l17.7,2.1l-0.2-28.7l2.1-2.1l6.7-1.5l5.6-7.1l0.2-2.1l22-10.6l-3.9-15.6l0.8-1.5l1.7-1.5
	l14.6-1l3.3-4.8l0.8-12.5l5.6-3.9l-2.1-11.2l-6-6v-6.5l22-0.4l1,4.2l5.4,6.4l15.4-1.7l5.2,4.2l1.2,8.1l9.2,4l14.4-8.1l5.6,5.6
	l-5,18.5l7.5,5l17.7-8.5l2.5,0.8l3.5,3.5l16.9,0.2l6.2,6.2l0.2,0.4l3.7,2.3l-1,21l7.9,4.2l2.1,1.9l5,3.1l3.5-1.5l18.7,3.1l0.8,2.5
	l20.2,0.8l0.9,1.9l1.8,7.9l5.2,3.5l17.7-13.1l-3.1-3.9l-3.3-9.8l0.4-1.7l4-3.5l10-1.5v-21.4l3.9-0.6l6-4.4l5.2-15.8l19.5,13.1
	l6.4-17.5h0.4l10.8-10.8l8.3,3.3l9.8-10.4l-2.9-8.9l3.7-6.2l-0.2-2.7l17.3-16l-1.2-2.1l0.8-10.8l15-9.6l-0.8-1.9l5.6-16.6l3.3-3.5
	l8.7-2.7l2.7-6.5l30.6,5.2l3.1-10l-3.1-9.2l11.7-12.7l0.4-4.8l-9.2-15.6l15.2-7.5l0.8-25.8l10-0.8l5.6-4.6l3.5-14.6l-8.5-11.4
	l-5.8-1.2l-10,5.8l-6-2.9l-17.7,6.4l-7.3-8.9l-12.3,5l0.8,14.4l-1.9,3.7l-17.1-7.5l0.2-2.7l-11-16l0.6-2.9l-17.7-8.7l-14.6,11.4
	l-3.3-2.3l-4-18.5l-6.7-5l-1.7-7.1l18.3-15.4l0.2-0.6l-4.2-10.2l24.1-14.6l-5.6-9.6l-14.8-4l-4.8,1l-5.8-16.2l-6.5-4.6l-9.2,2.1
	l-3.1,16.2l-15-1.5l-2.3-1.5l-0.6-1l6.7-17.3l3.7-2.3l-4.4-8.1L738,63.5l-1.9,0.6l-5.2-6.5l8.1-8.3l0.6-6l-1.7-5.2l-1.7-1.9
	l-9.1,3.3l-12.7-8.9l-9.2,5l-9.1-9.4h-14.4l-3.7,3.3l-20-12.3l0.2-6L638.4,2l-1.2,0.8l-4.4,6.4l4.8,12.5l-24.3,7.5l3.7,9.1l-1.7,4.2
	l0.6,7.3l14.8,13.7l-9.4,9.8l-4.6-2.3L596,75.4l5.2,16.8l4.6,1.2l6.9,13.7l-1.5,6.4l-11.9-0.3l-2.8,10.9l10.2,8v0.4l-11.6,11.4
	l-3.1-9.1l-6.2-6.2l-9-3.7l-4.2,8.9l-15.8-5l-1.5-3.3l-20.2-0.8l1.2-8.3l-5.2-9.6l-8.7,2.9l-6.5-6.9h-6l-4.4-3.7l-11.9,11.2
	L481.2,94.1z"/>
<path id="Staerk" class="st1" d="M695.5,476.8l-0.9-1.9l-20.2-0.8l-0.8-2.5l-18.7-3.1l-3.5,1.5l-5-3.1l-2.1-1.9l-7.9-4.2l1-21
	l-3.7-2.3l-0.2-0.4l-6.2-6.2l-16.9-0.2l-3.5-3.5l-2.5-0.8l-17.7,8.5l-7.5-5l5-18.5l-5.6-5.6l-14.4,8.1l-9.2-4l-1.2-8.1l-5.2-4.2
	l-15.4,1.7l-5.4-6.4l-1-4.2l-22,0.4v6.5l6,6l2.1,11.2l-5.6,3.9l-0.8,12.5l-3.3,4.8l-14.6,1l-1.7,1.5l-0.8,1.5l3.9,15.6l-22,10.6
	l-0.2,2.1l-5.6,7.1l-6.7,1.5l-2.1,2.1l0.2,28.7l-17.7-2.1l-1.2-16.9l-7.9-0.2l-12.3,8.5l-9.4-6.7l-2.7,0.8l-5.6-1.5l-16.8,6
	l-3.5-1.9l-2.7,0.6L363.6,515l-3.1,0.4l-6.9-2.5l-1.7,0.8L341.2,528l-7.5,1.9l-3.3-1.3l-17.3,6l-7.9-8.9l-0.8-3.7l7.9-11.9
	l-10.4-12.3l4.6-12.9l4-1.9l-2.5-19.1l8.5-7.5l12.3,5.2l12.3-17.1l9.8,0.4l3.9-16l5.2-4.8l-5.6-12.3l-11.2-2.5l-0.8,0.8l-6.9,1.7
	l-13.1-2.9L322,407l-18.3,1.2l3.3,19.5l-1.3,2.9l-16.4,1l-6.2-2.7l-0.8,0.8l-23.7-10l0.4-0.8l-5.4-0.8l-8.5-6.9l-1.9-9.8l0.2-1
	l8.5-8.5l-1-9.8l-11-8.5l-0.2-0.8l4.8-12.3l-7.5-11.9l-9.6-1.7l-3.1-9.6l-7.3-3.5l1.3-14.3l-10.8-8.3l-0.4-2.3l-8.1-3.7l-7.5-15.8
	l8.9-7.3l-1.9-8.5l-9.6-5.2l0.6-9.8l-3.3-5l-0.6-3.1l-4.4-2.5l-6.5-9.4h-0.2l-11.2,6.2l-1.5,12.7l-20.4-5.2l-1.3-6.9l-20.4-2.9
	l-4.4-3.9l-11.9,16.9l3.3,6l-8.1,6.2l0.8,6.4l7.3,2.3l-1,9.2l-7.3,5l-0.2,1.3l4.4,8.1l-6.9,18.5l-0.6,0.2l-1.2,1.9L68.1,330l-1-1.9
	l-9.6-6L56.2,304l-0.6-0.2l-19.3,13.7l-2.9-1.7l0.4-20l-9.8-1l-12.1,8.1l3.3,9.2l9.4,4.8l-8.3,24.5l1.2,1.7l1.7,0.4l21.4-13.1
	l8.7,13.1L41,355.6l15.2,14.8l7.3-1.5L74.7,381l12.1-1.5l6.4,7.9l-6.7,18.3L88,408l-6.4,18.3l-7.5,3.7l-11.2-7.5l-2.9,1.9
	l-10.6,18.1l0.4,6.9l-0.2,0.6l-14.1-1.5l-10.8,18.3L17.6,456l-14.3-3.7L2,466.2l11.9,11l11.2-6.9l1.5,0.6l9.2,16.9l8.5-0.4l0.6-16.9
	l12.5,4.4l-1.9,13.5l-1.9,1.3l3.1,12.7l13.7-0.8l-3.9,15.8l15.2-2.5l8.7,6l-10.8,10.2l-0.4,4.2l-12.9,8.1l-7.1-6.4l-13.1,1.5
	L40.3,556l2.5,2.3l24.8-4.2v-0.2l16.9-7.9l1.3-2.9l11-0.6l-2.1,14.8l-9.2-1.2l-7.5,5.8l-5.8-3.1l-6,16.6l-8.5-0.4l-4.6,1.7L65,597.1
	l-15.4,6.2l1.2,7.1l-6.4,13.3l7.5,6.4l15.8-7.5l9.4,6l-0.4,4.4l-18.9,16.8l13.7,15.4v4.8l0.6,0.8l-0.6,15l3.3,5l16,1.9l3.5-3.7
	l2.3-13.9l-0.6-0.6l1.3-22.9h0.2l4.8-5.4l16.4,1.3l6.5-12.7l6.4,1.2l5,9.8l7.9,2.7l7.7-4.8l9.8,6.4v0.6l10.4,11.2l10.8-5.2l10.4,9.6
	l-19.6,8.3l-3.5-4.6l-16.2,1.3l-3.1-3.9L143,665l-12.9,12.9l-0.2,14.6l2.1,2.1l14.4,1l8.9,15.8l15.4-1.2l6.7,15.2l17.1-2.3l0.2,17.7
	l-13.5,7.7l-7.9-3.7l-11.9,17.3l1.2,4.6l2.1,1.9l16.8,0.8l0.8,16.6l3.9,2.9l17.1-10.4l-0.6-5.6l11.7-11.6l14.1,10.8l1.5,5l23.1-10.4
	l2.9,6.5l-10.8,14.4l4.6,8.9l9.6-2.1l3.5,1l12.9-8.9l5,1.7l1.9,3.9l14.3,5.8l5-6.7l-1.3-16.4l5.4-5.6l3.3-1.7l2.1-0.4l16,23.3
	l9.4-2.5l8.7,13.9l15.4,2.9l4.2-8.9l-9.4-14.6l1.2-1l5-18.9l-1.9-2.3l-7.5-2.5l-3.3-14.3l12.9-4.2l6.9-8.9l3.7,1.5l21.4,0.2
	l-4.6-24.7l3.1-3.5l23.7,8.5l7.1-5.4l17.3,9.4l0.4,2.5l14.8,9.6l8.7-0.8l4.6-6.7l13.5-4.6l10.4,8.3l-12.3,21l2.3,5.6l15.8,6.2
	l1.3-0.6l2.5-3.3l14.4-6.2l9.2,11l14.4-6.5l-11.2-14.3L519,742l-10.6-16.6l-6.9-2.5l8.7-18.7l4.2-1.3l10.6,5.8l14.3-6.4l5.6,6
	l8.3,1.9l1.7,18.7l9.2,6.3l5.6,11.6l11,5l11.6-6.7l7.9,3.9l2.1-0.2l10-15.8l-2.7-4.4l-7.5-2.7l-12.3,9.8l-8.7-6.2l1-8.6l-12.3-9.8
	l4.4-2.3l5.2-17.3l-2.1-5.4l11.9-8.9l-8.7-23.5l-8.5,1.5l-15-18.7l-13.9,2.5l-1.5-1.5l-17.3-5.6l-10.4,6.4l-8.1-8.3l-1.5-13.1l7.1-6
	l11.2-0.4l1,1.2l20,1.3l5-3.5l4.4-8.1l-0.6-2.3l9.2-12.9l6.2-1.2l5.4,1.5l9.6-11.7l-9.2-10.2l3.9-11.6l-21.2-3.1l-1.5-7.9l2.3-4.8
	l12.3-2.9l6.5,3.1l10.8-9.6l13.3,8.7l1,15l17.1,4.2l11.4-13.1l21.2,11.9l6.4-6.4l-1.7-22.2l-2.5-2.3l15.2-19.6l12.5,5.8l3.3-1.9
	l3.1-17.3l10.6-6L695.5,476.8z"/>
<path id="Odvaha" class="st2" d="M957.6,347l10.6-11.9l-4.4-4.2l-16.9,1.5l5.8-14.3l-3.7-2.7l-4.4-11l16-6.9l0.4-0.8l-1.3-9.4
	l4.6-8.1l-13.9-15.4l-4.6-1l-10.2,8.3l-17.9-18.9l1.2-1.7L916,232l-6-10.6l-10,0.8l-0.8,25.8l-15.2,7.5l9.2,15.6l-0.4,4.8
	l-11.7,12.7l3.1,9.2l-3.1,10l-30.6-5.2l-2.7,6.5l-8.7,2.7l-3.3,3.5l-5.6,16.6l0.8,1.9l-15,9.6l-0.8,10.8l1.2,2.1l-17.3,16l0.2,2.7
	l-3.7,6.2l2.9,8.9l-9.8,10.4l-8.3-3.3L769.6,408h-0.4l-6.4,17.5l-19.5-13.1l-5.2,15.8l-6,4.4l-3.9,0.6v21.4l-10,1.5l-4,3.5l-0.4,1.7
	l3.3,9.8l3.1,3.9l-17.7,13.1l-5.2-3.5l-10.6,6l-3.1,17.3h10.6l10.2-12.5v-1.3l17.3-2.3l-2.1,13.3l-5.2,5.2l-0.2,0.8L699,514
	l-0.8,8.5l6.7,4.2l1,4.8l11.6,5l7.7-1.2l3.3,1l1,2.3l-8.5,14.1l-8.3,1.2l-4.6-2.7l-8.9,9.4l1.2,4.4l-4.8,11.4l1.3,1.9l-9.4,14.3
	l1.5,12.7l1.3,1.2l-3.9,22.5l-12.7-0.6L662,640.5l4,10.8l3.7,1.3l12.7-2.3l3.3,14.3l-7.9,10.4v0.2l-1.5,1.5l-18.1-2.3l-6.2,10
	l5.8,10.8l18.3,1.9l1.5,2.1l-9.6,16.9l-6,1l-7.5,8.5l17.3,17.9l-0.2,0.2l-1.5,12.3l18.1,13.3l0.2,2.1l24.1,6.4l1.3,8.5l14.6,6
	l11.7-8.9l-2.5-13.7l17.3-4l1.9-2.5l16.8,5.4l0.8,3.1l8.9,7.7l16.2-11.6h3.3l2.7-3.7l16-3.5l2.9,9.8l10.8,4.2l3.9-11.9l-15-5.8
	l0.4-9.2L837,744l10,7.3l7.1-7.7l11.2,5.6l1.5-2.9l-7-17.3l2.1-6.2l10.6,1.2l11.7,24.3l4.5-6.4l8,0.7l1-6.8l5.4-7.9l-0.6-3.9
	l14.8-15.8l-9.6-12.5l9.8-13.5l-12.1-18.1l6.7-4.2l5.6-16.8l-13.9-4.8l-1.7-10.6l-11.7-4l-1.5-5.4l1.5-5.8l-6.2-9.6l11.2-13.9
	l-10-8.3l1-8.7l-12.1-10.2l-12.5,5l-5.6-7.7l12.1-16l-5.2-5l1-13.1l6-2.9l10.2,5.8l9.4-2.9l-8.5-20.6l0.8-1l-10.8-11.7l9.2-5.4
	l8.1,7.1l-1.2,6.5l17.9,9.1L895,526.1l6.9,12.5l3.7,0.2l13.1-10.4l2.1-6.5l-3.5-7.7l13.9-13.5l-9.2-8.5l5.2-17.9l-15.4-3.3l4.8-24.1
	l25.6,13.9l4.4-2.9l-0.2-16.4l5.8-8.3l-10-19.5l16-6.9l-4.4-16.9l-11.6-2.3l3.1-16l15.8,6.4l-0.4-8.3l-6.5-6.5l7.1-8.7L957.6,347z"
	/>
<polygon id="Lotheran" class="st3" points="558.5,466.8 558.5,493.8 581.6,506.8 605.1,493.8 605.1,466.8 581.6,453.3 "/>
<polygon id="Ereiviel" class="st4" points="605.5,343.4 605.5,370.3 628.6,383.4 652.1,370.3 652.1,343.4 628.6,329.9 "/>
<polygon id="Therralia" class="st5" points="724.1,621.5 724.1,648.4 747.2,661.5 770.7,648.4 770.7,621.5 747.2,608 "/>
</svg>
